<svg xmlns="http://www.w3.org/2000/svg" viewBox="0 0 67.725 67.725" class="svg gitea-gogs" width="16" height="16" aria-hidden="true"><g style="display:inline"><path d="M27.943 67.653c-.253-.035-.52-.127-.595-.205-.17-.176-.389-.932-1.065-3.691-.296-1.21-.605-2.364-.686-2.567-.178-.445-.575-.7-2.558-1.646-2.212-1.055-4.622-2.517-6.734-4.083l-.902-.67-2.778.812c-1.528.447-3.18.899-3.67 1.005l-.892.193-.42-.642c-1.14-1.738-4.263-7.126-5.535-9.544l-.666-1.266.578-.708c.318-.39 1.547-1.696 2.73-2.903l2.152-2.195-.216-1.243c-.192-1.107-.216-1.578-.219-4.335-.002-2.491.031-3.324.172-4.283l.175-1.19-2.47-2.434c-1.831-1.806-2.516-2.544-2.655-2.862-.184-.423-.184-.432.004-.918.57-1.473 5.287-9.547 6.203-10.617l.308-.36.58.15c.319.084 1.896.524 3.505.979l2.924.827.514-.312c.283-.171 1.011-.675 1.618-1.12 1.56-1.142 3.218-2.107 5.631-3.28 2.243-1.091 2.2-1.057 2.542-2.014.079-.22.402-1.4.72-2.623.316-1.222.685-2.555.82-2.961.21-.64.278-.747.504-.796.579-.127 4.75-.18 8.723-.111l4.21.073.515 2.09c.61 2.475 1.087 4.164 1.349 4.774.209.488.01.37 3.103 1.837 1.621.77 3.175 1.704 5.152 3.1.84.593 1.601 1.13 1.691 1.19.132.09.601-.019 2.387-.554 1.222-.367 2.849-.825 3.614-1.018l1.392-.352.173.23c1.116 1.476 6.37 10.647 6.37 11.116 0 .4-.584 1.095-3.04 3.621l-2.264 2.33.19 1.15c.272 1.654.327 3.74.188 7.083l-.121 2.932L63 41.431c1.854 1.836 2.956 3.05 3.21 3.539.139.266.124.317-.393 1.353-1.543 3.09-5.396 9.697-5.891 10.102-.274.224-1.084.07-4.022-.761-1.512-.429-2.904-.802-3.093-.83-.304-.044-.451.026-1.309.623-3.29 2.291-4.062 2.753-6.717 4.015-1.034.492-1.898.967-2.05 1.127-.334.353-.598 1.209-1.365 4.438l-.608 2.561-2.265.06c-3.01.079-9.974.076-10.554-.005zm9.4-14.499c2.502-.465 6.191-2.062 8.215-3.557 2.15-1.588 5.692-5.842 5.953-7.15.057-.28.024-.32-.651-.773-1.076-.722-2.617-1.647-6.075-3.648-5.005-2.897-5.411-3.202-5.412-4.065-.001-1.603-1.458-3.921-2.9-4.615-2.141-1.03-4.595-.624-6.236 1.034-.377.38-.815.944-.983 1.266-1.621 3.103.11 6.649 3.595 7.362 1.06.217 2.07.088 3.485-.445l1.053-.397 2.418 1.386c3.197 1.831 4.33 2.538 4.906 3.063.407.37.468.472.414.685-.092.364-.806 1.199-1.668 1.95-1.924 1.68-4.01 2.711-6.635 3.281-1.41.306-4.215.306-5.622.001-1.449-.315-2.378-.639-3.666-1.28a14.9 14.9 0 0 1-8.17-11.527c-.188-1.501-.081-3.825.24-5.24 1.225-5.397 5.274-9.535 10.732-10.967 1.637-.43 2.38-.515 3.98-.457 1.509.055 2.338.2 4.235.747.677.194 1.31.311 1.74.321.593.014.743-.021 1.208-.282 1.292-.725 1.626-2.22.721-3.221-1.576-1.745-7.993-2.65-12.41-1.75-2.97.606-6.045 2.16-8.365 4.229-3.08 2.746-5.096 5.636-6.133 8.796-1.107 3.368-1.227 7.346-.33 10.896.926 3.665 3.05 7.134 5.931 9.685 2.92 2.586 6.899 4.393 10.68 4.851 1.303.158 4.467.06 5.75-.179z" style="display:inline;fill:#d75547;fill-opacity:1;fill-rule:evenodd;stroke:#428f29;stroke-width:.0190659;paint-order:markers fill stroke"/></g></svg>