<svg xmlns="http://www.w3.org/2000/svg" viewBox="0 0 67.733 64.872" class="svg gitea-gogs" width="16" height="16" aria-hidden="true"><g style="display:inline"><path d="M26.516 67.66c-.253-.036-.52-.128-.595-.205-.17-.177-.389-.932-1.065-3.692-.296-1.21-.605-2.364-.686-2.567-.178-.445-.575-.7-2.558-1.646-2.212-1.055-4.623-2.517-6.735-4.084l-.902-.668-2.778.811c-1.528.446-3.18.899-3.67 1.005l-.893.193-.42-.642C5.076 54.426 1.951 49.038.68 46.62l-.666-1.267.578-.708c.318-.39 1.546-1.696 2.73-2.904l2.152-2.195-.216-1.242c-.193-1.108-.216-1.579-.22-4.336-.001-2.491.032-3.324.173-4.283l.174-1.19-2.469-2.434C1.084 24.255.4 23.517.261 23.2c-.185-.423-.185-.433.003-.918.57-1.474 5.288-9.548 6.204-10.619l.308-.36.58.151a346 346 0 0 1 3.505.978l2.925.827.514-.311c.283-.172 1.01-.675 1.618-1.12 1.56-1.142 3.218-2.108 5.631-3.281 2.243-1.09 2.2-1.057 2.542-2.014.079-.22.402-1.4.72-2.623.316-1.222.686-2.555.82-2.961.21-.64.278-.747.504-.796.579-.127 4.75-.18 8.724-.111l4.21.073.515 2.09c.61 2.475 1.087 4.164 1.35 4.775.208.487.009.369 3.102 1.837 1.622.77 3.175 1.704 5.153 3.1.84.593 1.601 1.129 1.691 1.19.131.09.6-.019 2.387-.554 1.222-.367 2.849-.825 3.614-1.019l1.392-.351.174.23c1.115 1.476 6.37 10.647 6.37 11.117 0 .399-.584 1.094-3.04 3.62l-2.265 2.331.19 1.15c.272 1.654.328 3.74.189 7.084l-.122 2.932 1.807 1.789c1.854 1.836 2.956 3.05 3.21 3.539.139.266.124.317-.394 1.353-1.543 3.09-5.396 9.698-5.891 10.103-.274.224-1.084.07-4.022-.761-1.512-.429-2.904-.802-3.093-.83-.304-.044-.451.026-1.309.623-3.29 2.291-4.063 2.753-6.718 4.016-1.034.491-1.898.966-2.05 1.126-.334.353-.597 1.209-1.364 4.438l-.609 2.562-2.265.06c-3.01.078-9.975.075-10.555-.005zm9.401-14.5c2.502-.465 6.191-2.063 8.216-3.558 2.149-1.587 5.692-5.842 5.953-7.15.057-.28.024-.32-.651-.773-1.077-.722-2.618-1.647-6.076-3.649-5.005-2.896-5.411-3.201-5.412-4.065-.001-1.603-1.458-3.921-2.9-4.615-2.142-1.03-4.596-.624-6.237 1.033-.377.381-.814.945-.983 1.267-1.621 3.103.11 6.65 3.596 7.363 1.06.217 2.069.088 3.485-.446l1.053-.397 2.418 1.386c3.197 1.832 4.33 2.539 4.906 3.064.407.37.468.472.415.685-.092.364-.807 1.199-1.668 1.95-1.925 1.68-4.012 2.712-6.636 3.281-1.41.306-4.216.307-5.623.001-1.449-.314-2.377-.639-3.666-1.28a14.9 14.9 0 0 1-8.171-11.528c-.187-1.501-.08-3.825.24-5.24 1.226-5.397 5.275-9.536 10.734-10.968 1.637-.43 2.38-.515 3.98-.457 1.508.055 2.337.2 4.235.747.677.195 1.31.312 1.74.321.593.014.743-.021 1.208-.282 1.292-.724 1.627-2.22.721-3.221-1.576-1.745-7.994-2.65-12.41-1.75-2.97.606-6.046 2.16-8.367 4.229-3.08 2.746-5.096 5.637-6.133 8.797-1.106 3.368-1.227 7.347-.33 10.897.926 3.665 3.05 7.134 5.932 9.685 2.92 2.587 6.899 4.394 10.68 4.852 1.303.157 4.468.059 5.751-.18z" style="display:inline;fill:#d75547;fill-opacity:1;fill-rule:evenodd;stroke:#428f29;stroke-width:.0190672;paint-order:markers fill stroke"/></g></svg>