<svg xmlns="http://www.w3.org/2000/svg" viewBox="0 0 48 48" class="svg gitea-git" width="16" height="16" aria-hidden="true"><path d="M46.99 21.6 26.4 1.01A3.45 3.45 0 0 0 24 0c-.884 0-1.768.379-2.4 1.01l-4.421 4.422 5.179 5.179A3.5 3.5 0 0 1 24 10.23c2.147 0 3.79 1.643 3.79 3.79 0 .632-.127 1.137-.38 1.642l5.053 5.053a3.5 3.5 0 0 1 1.642-.38c2.148 0 3.79 1.643 3.79 3.79s-1.642 3.79-3.79 3.79c-2.147 0-3.79-1.642-3.79-3.79 0-.631.127-1.137.38-1.642l-5.053-5.052c-.126 0-.253.126-.379.126v13.137c1.516.505 2.526 1.894 2.526 3.537 0 2.147-1.642 3.79-3.789 3.79s-3.79-1.643-3.79-3.79c0-1.643 1.011-3.032 2.527-3.537V17.432c-1.516-.506-2.526-1.895-2.526-3.537 0-.632.126-1.137.378-1.642l-5.178-5.18L1.01 21.6A3.45 3.45 0 0 0 0 24c0 .884.379 1.768 1.01 2.4L21.6 46.99A3.45 3.45 0 0 0 24 48c.884 0 1.768-.379 2.4-1.01L46.99 26.4A3.45 3.45 0 0 0 48 24c0-.884-.379-1.768-1.01-2.4"/></svg>