<?xml version="1.0" encoding="UTF-8" standalone="no"?>
<svg
   xmlns:dc="http://purl.org/dc/elements/1.1/"
   xmlns:cc="http://creativecommons.org/ns#"
   xmlns:rdf="http://www.w3.org/1999/02/22-rdf-syntax-ns#"
   xmlns:svg="http://www.w3.org/2000/svg"
   xmlns="http://www.w3.org/2000/svg"
   xmlns:sodipodi="http://sodipodi.sourceforge.net/DTD/sodipodi-0.dtd"
   xmlns:inkscape="http://www.inkscape.org/namespaces/inkscape"
   width="64.872mm"
   height="67.73333mm"
   viewBox="0 0 67.73333 64.872"
   version="1.1"
   id="svg8"
   inkscape:version="1.0.2 (e86c870879, 2021-01-15)"
   sodipodi:docname="gitea-gogs.svg">
  <defs
     id="defs2" />
  <sodipodi:namedview
     id="base"
     pagecolor="#ffffff"
     bordercolor="#666666"
     borderopacity="1.0"
     inkscape:pageopacity="0.0"
     inkscape:pageshadow="2"
     inkscape:zoom="2.4352161"
     inkscape:cx="145.15203"
     inkscape:cy="129.56614"
     inkscape:document-units="mm"
     inkscape:current-layer="layer3"
     inkscape:document-rotation="0"
     showgrid="false"
     inkscape:window-width="1920"
     inkscape:window-height="1006"
     inkscape:window-x="1200"
     inkscape:window-y="444"
     inkscape:window-maximized="1" />
  <metadata
     id="metadata5">
    <rdf:RDF>
      <cc:Work
         rdf:about="">
        <dc:format>image/svg+xml</dc:format>
        <dc:type
           rdf:resource="http://purl.org/dc/dcmitype/StillImage" />
        <dc:title></dc:title>
      </cc:Work>
    </rdf:RDF>
  </metadata>
  <g
     inkscape:groupmode="layer"
     id="layer3"
     inkscape:label="Layer 3"
     style="display:inline">
    <path
       style="display:inline;fill:#d75547;fill-opacity:1;fill-rule:evenodd;stroke:#428f29;stroke-width:0.0190672;paint-order:markers fill stroke"
       d="m 26.516325,67.659618 c -0.253122,-0.03528 -0.521126,-0.127328 -0.595565,-0.204556 -0.170595,-0.17699 -0.388436,-0.932378 -1.064731,-3.692077 -0.296326,-1.209186 -0.605103,-2.364292 -0.686174,-2.566907 -0.178218,-0.445403 -0.575036,-0.700823 -2.55763,-1.646252 -2.212102,-1.05488 -4.622999,-2.516538 -6.735236,-4.083391 L 13.975394,54.797633 11.197139,55.60915 C 9.669098,56.055485 8.017392,56.507574 7.526682,56.613788 L 6.634483,56.806902 6.214052,56.164938 C 5.075508,54.426472 1.9510454,49.038091 0.67976124,46.620618 l -0.6661558,-1.266763 0.5780951,-0.70829 C 0.90965274,44.256003 2.1381419,42.949532 3.3216768,41.742293 L 5.473558,39.547312 5.257723,38.30477 C 5.065351,37.197296 5.041567,36.726035 5.038933,33.969338 5.036533,31.477985 5.069953,30.644982 5.210667,29.686393 L 5.385358,28.496348 2.9163623,26.061902 C 1.0840532,24.255234 0.39926124,23.517215 0.26081964,23.199957 0.07622374,22.776931 0.07625904,22.767326 0.26419504,22.281752 0.83443494,20.808373 5.552021,12.733986 6.468228,11.663236 l 0.307534,-0.359406 0.579927,0.150666 c 0.31896,0.08287 1.896185,0.522864 3.504944,0.97777 l 2.925016,0.827103 0.514143,-0.311601 c 0.282776,-0.171376 1.010761,-0.675132 1.617742,-1.119445 1.560395,-1.142226 3.218116,-2.1081693 5.631725,-3.2815753 2.242799,-1.090365 2.199931,-1.056402 2.541754,-2.013712 0.07851,-0.219883 0.402223,-1.400146 0.719352,-2.6228079 0.317133,-1.2226618 0.686179,-2.5554127 0.820099,-2.96166946 0.21072,-0.6392042 0.278682,-0.7463513 0.504827,-0.7958666 0.578623,-0.1266897 4.750034,-0.17976 8.723629,-0.1109849 l 4.209493,0.072858 0.515601,2.09113826 c 0.610179,2.4747206 1.087474,4.1637226 1.349116,4.7741006 0.208825,0.487166 0.0097,0.369221 3.102943,1.836996 1.621731,0.769503 3.175418,1.7042793 5.15262,3.1000793 0.840442,0.593306 1.601597,1.129065 1.691455,1.190579 0.131235,0.08984 0.600734,-0.01932 2.386433,-0.554845 1.222678,-0.366673 2.849367,-0.824847 3.614859,-1.018163 l 1.391811,-0.351485 0.173529,0.229754 c 1.115221,1.476546 6.370015,10.647429 6.370015,11.117211 0,0.398909 -0.583823,1.094401 -3.039603,3.620995 l -2.264849,2.330163 0.189305,1.149346 c 0.272468,1.654297 0.328216,3.740052 0.189342,7.08442 l -0.121741,2.931746 1.806583,1.788949 c 1.854069,1.835968 2.956117,3.051018 3.210049,3.539208 0.138709,0.266671 0.124139,0.316791 -0.393389,1.353144 -1.54314,3.09014 -5.396335,9.6976 -5.891451,10.102667 -0.274127,0.22427 -1.084166,0.07101 -4.021835,-0.760974 -1.512612,-0.428389 -2.904438,-0.801498 -3.092942,-0.82914 -0.304175,-0.04461 -0.451483,0.02546 -1.309283,0.622731 -3.29013,2.290817 -4.06292,2.752749 -6.717491,4.01534 -1.034012,0.491807 -1.898485,0.966906 -2.049841,1.126562 -0.334879,0.353236 -0.598017,1.208781 -1.365063,4.438217 l -0.608349,2.561305 -2.265337,0.05959 c -3.010349,0.0792 -9.975189,0.07617 -10.554574,-0.0045 z m 9.400769,-14.50003 c 2.501956,-0.464716 6.191124,-2.062231 8.215636,-3.557598 2.149165,-1.587449 5.692026,-5.841908 5.953507,-7.149302 0.05631,-0.281589 0.02333,-0.320764 -0.651547,-0.773512 -1.076281,-0.722047 -2.617292,-1.647572 -6.0752,-3.648736 -5.005645,-2.896876 -5.411491,-3.201691 -5.41229,-4.06496 -0.0013,-1.603087 -1.458355,-3.921749 -2.899997,-4.615442 -2.142044,-1.030716 -4.595794,-0.624143 -6.237153,1.03346 -0.376943,0.380671 -0.814464,0.944474 -0.982573,1.266163 -1.621799,3.103467 0.10963,6.649403 3.595181,7.362863 1.060436,0.217059 2.069345,0.08811 3.485208,-0.445423 l 1.05275,-0.396708 2.418767,1.385759 c 3.196922,1.831579 4.32918,2.538673 4.905746,3.063635 0.406861,0.370442 0.468309,0.472068 0.414403,0.685311 -0.09188,0.363445 -0.806132,1.198862 -1.667827,1.950753 -1.924238,1.679028 -4.011237,2.71073 -6.636153,3.280563 -1.409315,0.305941 -4.215087,0.306328 -5.622269,8.13e-4 -1.448961,-0.314619 -2.377576,-0.638784 -3.666623,-1.279954 -4.494896,-2.235747 -7.548912,-6.544624 -8.170752,-11.528013 -0.187352,-1.501436 -0.08073,-3.824897 0.240421,-5.239394 1.225649,-5.398236 5.274916,-9.536367 10.733314,-10.968854 1.636989,-0.429609 2.380054,-0.51492 3.980143,-0.456953 1.508669,0.05465 2.337515,0.200827 4.235489,0.746954 0.67627,0.194592 1.30943,0.311576 1.739781,0.321452 0.592533,0.01359 0.742618,-0.02151 1.208182,-0.282572 1.291657,-0.724289 1.626276,-2.219325 0.721001,-3.221343 -1.576225,-1.744663 -7.99406,-2.649319 -12.410334,-1.749353 -2.970794,0.605401 -6.045593,2.159482 -8.366479,4.228629 -3.080548,2.746404 -5.095976,5.636944 -6.133614,8.79686 -1.106209,3.368731 -1.226498,7.346976 -0.329504,10.897343 0.925997,3.665156 3.050573,7.134291 5.931518,9.685333 2.920838,2.586369 6.898874,4.393284 10.680323,4.851252 1.303006,0.157806 4.468046,0.05929 5.750945,-0.178985 z"
       id="path851" />
  </g>
</svg>
