<?xml version="1.0" encoding="UTF-8" standalone="no"?>
<svg
   width="64mm"
   height="64mm"
   viewBox="0 0 67.724868 67.724868"
   version="1.1"
   id="svg8"
   inkscape:version="1.4 (e7c3feb100, 2024-10-09)"
   sodipodi:docname="gitea-gogs.svg"
   xmlns:inkscape="http://www.inkscape.org/namespaces/inkscape"
   xmlns:sodipodi="http://sodipodi.sourceforge.net/DTD/sodipodi-0.dtd"
   xmlns="http://www.w3.org/2000/svg"
   xmlns:svg="http://www.w3.org/2000/svg"
   xmlns:rdf="http://www.w3.org/1999/02/22-rdf-syntax-ns#"
   xmlns:cc="http://creativecommons.org/ns#"
   xmlns:dc="http://purl.org/dc/elements/1.1/">
  <defs
     id="defs2" />
  <sodipodi:namedview
     id="base"
     pagecolor="#ffffff"
     bordercolor="#666666"
     borderopacity="1.0"
     inkscape:pageopacity="0.0"
     inkscape:pageshadow="2"
     inkscape:zoom="2.4352161"
     inkscape:cx="122.57639"
     inkscape:cy="137.97543"
     inkscape:document-units="mm"
     inkscape:current-layer="layer3"
     inkscape:document-rotation="0"
     showgrid="false"
     inkscape:window-width="2327"
     inkscape:window-height="1238"
     inkscape:window-x="0"
     inkscape:window-y="0"
     inkscape:window-maximized="1"
     inkscape:showpageshadow="2"
     inkscape:pagecheckerboard="0"
     inkscape:deskcolor="#d1d1d1" />
  <metadata
     id="metadata5">
    <rdf:RDF>
      <cc:Work
         rdf:about="">
        <dc:format>image/svg+xml</dc:format>
        <dc:type
           rdf:resource="http://purl.org/dc/dcmitype/StillImage" />
      </cc:Work>
    </rdf:RDF>
  </metadata>
  <g
     inkscape:groupmode="layer"
     id="layer3"
     inkscape:label="Layer 3"
     style="display:inline">
    <path
       style="display:inline;fill:#d75547;fill-opacity:1;fill-rule:evenodd;stroke:#428f29;stroke-width:0.0190659;paint-order:markers fill stroke"
       d="m 27.943159,67.65302 c -0.253104,-0.03528 -0.521089,-0.127319 -0.595523,-0.204541 -0.170583,-0.176978 -0.388409,-0.932313 -1.064657,-3.69182 -0.296305,-1.209101 -0.60506,-2.364126 -0.686126,-2.566727 -0.178205,-0.445372 -0.574995,-0.700774 -2.557451,-1.646137 -2.211948,-1.054807 -4.622676,-2.516363 -6.734766,-4.083106 l -0.901532,-0.668755 -2.778061,0.81146 c -1.527934,0.446304 -3.1795254,0.898361 -3.6702011,1.004568 l -0.8921367,0.1931 -0.4204017,-0.641919 C 6.503839,54.420798 3.3795946,49.032794 2.1083992,46.61549 L 1.4422899,45.348815 2.0203446,44.640574 C 2.3382746,44.25104 3.566678,42.94466 4.7501303,41.737505 L 6.9018612,39.542677 6.6860413,38.300222 C 6.4936827,37.192826 6.4699004,36.721598 6.4672666,33.965093 c -0.0024,-2.491179 0.031018,-3.324124 0.171722,-4.282646 L 6.8136674,28.492485 4.3448441,26.058209 C 2.512663,24.251667 1.8279188,23.5137 1.6894868,23.196464 1.5049038,22.773468 1.5049391,22.763863 1.692862,22.278323 2.2630621,20.805047 6.9803188,12.731224 7.8964618,11.660549 l 0.3075125,-0.359381 0.5798865,0.150655 c 0.3189377,0.08286 1.8960532,0.522828 3.5047002,0.977702 l 2.924811,0.827045 0.514108,-0.311579 c 0.282756,-0.171364 1.01069,-0.675085 1.617629,-1.119367 1.560286,-1.142146 3.217891,-2.1080228 5.631331,-3.2813469 2.242643,-1.0902889 2.199778,-1.0563282 2.541577,-2.0135714 0.0785,-0.2198676 0.402195,-1.4000482 0.719302,-2.6226247 0.31711,-1.2225764 0.686131,-2.5552343 0.820041,-2.96146271 0.210706,-0.63915956 0.278663,-0.74629918 0.504792,-0.79581102 0.578583,-0.12668086 4.749702,-0.17974745 8.72302,-0.11097715 l 4.209199,0.07285291 0.515565,2.09099227 c 0.610136,2.4745478 1.087398,4.1634318 1.349022,4.7737672 0.20881,0.487132 0.0097,0.3691952 3.102726,1.8368677 1.621618,0.7694493 3.175196,1.7041608 5.15226,3.0998638 0.840384,0.593265 1.601485,1.128986 1.691337,1.190496 0.131226,0.08983 0.600692,-0.01932 2.386266,-0.554806 1.222593,-0.366648 2.849169,-0.82479 3.614607,-1.018092 l 1.391714,-0.351461 0.173517,0.229738 c 1.115143,1.476443 6.36957,10.646686 6.36957,11.116435 0,0.398881 -0.583782,1.094324 -3.039391,3.620742 l -2.264691,2.33 0.189292,1.149266 c 0.272449,1.654181 0.328193,3.739791 0.189329,7.083925 l -0.121733,2.931542 1.806457,1.788824 c 1.85394,1.835839 2.955911,3.050805 3.209825,3.53896 0.138699,0.266653 0.12413,0.316769 -0.393361,1.35305 -1.543033,3.089924 -5.395959,9.696923 -5.89104,10.101962 -0.274108,0.224254 -1.08409,0.071 -4.021554,-0.760921 -1.512507,-0.428359 -2.904235,-0.801442 -3.092726,-0.829082 -0.304154,-0.04461 -0.451452,0.02546 -1.309192,0.622687 -3.2899,2.290657 -4.062636,2.752557 -6.717022,4.01506 -1.033939,0.491772 -1.898352,0.966838 -2.049698,1.126483 -0.334855,0.353211 -0.597975,1.208697 -1.364967,4.437907 l -0.608307,2.561126 -2.265179,0.05959 c -3.010138,0.07919 -9.974492,0.07617 -10.553837,-0.0045 z m 9.400113,-14.499017 c 2.501781,-0.464684 6.190692,-2.062087 8.215062,-3.55735 2.149015,-1.587338 5.691629,-5.8415 5.953092,-7.148802 0.05631,-0.28157 0.02333,-0.320742 -0.651502,-0.773458 -1.076206,-0.721997 -2.617109,-1.647457 -6.074776,-3.648482 -5.005295,-2.896673 -5.411113,-3.201467 -5.411912,-4.064676 -0.0013,-1.602975 -1.458253,-3.921475 -2.899794,-4.615119 -2.141895,-1.030644 -4.595473,-0.6241 -6.236718,1.033387 -0.376916,0.380645 -0.814407,0.944408 -0.982504,1.266075 -1.621686,3.10325 0.109622,6.648939 3.59493,7.362349 1.060362,0.217044 2.0692,0.0881 3.484964,-0.445392 l 1.052677,-0.39668 2.418598,1.385662 c 3.196699,1.831451 4.328878,2.538496 4.905404,3.063421 0.406832,0.370416 0.468276,0.472035 0.414374,0.685263 -0.09187,0.36342 -0.806076,1.198778 -1.667711,1.950617 -1.924104,1.678911 -4.010957,2.710541 -6.63569,3.280334 -1.409216,0.305919 -4.214792,0.306306 -5.621876,8.13e-4 -1.44886,-0.314597 -2.37741,-0.63874 -3.666367,-1.279865 -4.494582,-2.235591 -7.548385,-6.544167 -8.170181,-11.527208 -0.187339,-1.501331 -0.08072,-3.82463 0.240404,-5.239028 1.225563,-5.397859 5.274548,-9.535701 10.732564,-10.968088 1.636875,-0.429579 2.379888,-0.514884 3.979865,-0.456921 1.508564,0.05465 2.337352,0.200813 4.235194,0.746902 0.676222,0.194578 1.309338,0.311554 1.739659,0.321429 0.592492,0.01359 0.742566,-0.02151 1.208098,-0.282552 1.291567,-0.724238 1.626162,-2.21917 0.72095,-3.221118 -1.576114,-1.744541 -7.993501,-2.649134 -12.409467,-1.749231 -2.970586,0.605359 -6.045171,2.159331 -8.365895,4.228334 -3.080333,2.746212 -5.09562,5.63655 -6.133185,8.796246 -1.106132,3.368495 -1.226413,7.346462 -0.329481,10.896582 0.925932,3.6649 3.05036,7.133792 5.931103,9.684656 2.920634,2.586189 6.898393,4.392977 10.679578,4.850913 1.302915,0.157795 4.467734,0.05929 5.750543,-0.178972 z"
       id="path851" />
  </g>
</svg>
