<svg xmlns="http://www.w3.org/2000/svg" viewBox="0 0 48 48" width="50.667px" height="50.667px">
	<path d="M 46.989474,21.6 26.399999,1.0105263 C 25.768421,0.3789474 24.884211,0 24,0 c 0,0 0,0 0,0 -0.884211,0 -1.768421,0.3789474 -2.400001,1.0105263 l -4.421052,4.4210527 5.178947,5.178947 C 22.863158,10.357895 23.368422,10.231579 24,10.231579 c 2.147368,0 3.789474,1.642105 3.789474,3.789474 0,0.631579 -0.126316,1.136842 -0.378947,1.642105 l 5.052631,5.052632 c 0.505264,-0.252632 1.010526,-0.378948 1.642106,-0.378948 2.147368,0 3.789473,1.642105 3.789473,3.789474 0,2.147368 -1.642105,3.789474 -3.789473,3.789474 -2.14737,0 -3.789474,-1.642106 -3.789474,-3.789474 0,-0.631579 0.126316,-1.136842 0.378947,-1.642105 l -5.052631,-5.052632 c -0.126316,0 -0.252633,0.126316 -0.378947,0.126316 v 13.136842 c 1.515788,0.505263 2.526315,1.894737 2.526315,3.536842 0,2.147368 -1.642106,3.789474 -3.789474,3.789474 -2.147368,0 -3.789474,-1.642106 -3.789474,-3.789474 0,-1.642105 1.010527,-3.031579 2.526316,-3.536842 V 17.431579 c -1.515789,-0.505263 -2.526316,-1.894737 -2.526316,-3.536842 0,-0.631579 0.126316,-1.136842 0.378947,-1.642105 L 15.410526,7.073684 1.0105264,21.6 C 0.3789474,22.231579 0,23.11579 0,24 c 0,0.884211 0.3789474,1.768421 1.0105264,2.4 L 21.599999,46.989474 c 0,0 0,0 0,0 C 22.231579,47.621053 23.115789,48 24,48 c 0.884211,0 1.768421,-0.378947 2.399999,-1.010526 L 46.989474,26.4 C 47.621053,25.768421 48,24.884211 48,24 48,23.11579 47.621053,22.231579 46.989474,21.6 Z" />
</svg>